<svg xmlns="http://www.w3.org/2000/svg">
  <symbol xmlns="http://www.w3.org/2000/svg" id="icon-1" viewBox="0 0 24 24">
    <path
      fill-rule="evenodd"
      clip-rule="evenodd"
      d="M7.69 16.41l-4.027 4.027-.66-.66L7.03 15.75l.66.66zM20.437 3.663l-4.941 4.941-.66-.66 4.94-4.94.66.66z"></path>
    <path
      fill-rule="evenodd"
      clip-rule="evenodd"
      d="M.933 12C.933 18.1 5.9 23.067 12 23.067c6.102 0 11.067-4.966 11.067-11.067S18.102.933 12 .933C5.9.933.933 5.9.933 12zM0 12c0 6.617 5.383 12 12 12s12-5.383 12-12S18.617 0 12 0 0 5.383 0 12z"></path>
    <path
      fill-rule="evenodd"
      clip-rule="evenodd"
      d="M11.81 4.484c-.314.324-1.001 1.138-1.022 2.083-.021.95.628 1.79.928 2.127.316-.324 1.002-1.134 1.024-2.084.02-.944-.629-1.787-.93-2.126zm-.1 5.192a.657.657 0 01-.456-.181c-.071-.068-1.39-1.34-1.354-2.948.035-1.583 1.337-2.756 1.485-2.885a.662.662 0 01.887.02c.143.135 1.39 1.365 1.356 2.948-.037 1.618-1.428 2.835-1.487 2.886a.66.66 0 01-.432.16zM7.719 15.473c.031.548.195 1.866 1.015 2.756.938 1.018 1.956 1.18 2.576 1.157-.027-.77-.349-3.564-3.591-3.912zm4.48 4.143v0zm-.99.66c-.803 0-2.02-.244-3.128-1.445-1.302-1.412-1.258-3.614-1.258-3.637a.655.655 0 01.212-.461.654.654 0 01.478-.168c2.505.16 3.65 1.525 4.17 2.643.489 1.053.519 2.073.517 2.344a.486.486 0 01-.011.425.48.48 0 01-.355.247 3.77 3.77 0 01-.625.052z"></path>
    <path
      fill-rule="evenodd"
      clip-rule="evenodd"
      d="M16.071 15.451zm-3.854 3.935c.62.022 1.638-.14 2.576-1.157.81-.878.979-2.203 1.014-2.755-3.239.348-3.563 3.137-3.59 3.912zm.102.89c-.256 0-.47-.025-.625-.051a.48.48 0 01-.355-.248.486.486 0 01-.013-.423c-.043-1.364.705-4.735 4.687-4.989a.649.649 0 01.69.626c.002.024.05 2.222-1.257 3.64-1.107 1.201-2.324 1.445-3.127 1.445z"></path>
    <path
      fill-rule="evenodd"
      clip-rule="evenodd"
      d="M8.067 11.906zm2.916 3.526l.11.001c.069 0 .142.005.233.002-.015-.704-.268-3.094-2.995-3.497.022.502.148 1.633.825 2.401.685.776 1.631 1.044 1.827 1.093zm.345.891l-.246-.002-.24-.01c-.056-.012-1.385-.29-2.352-1.384-1.16-1.315-1.05-3.28-1.048-3.3a.65.65 0 01.708-.605c3.537.336 4.13 3.387 4.063 4.615a.5.5 0 01-.031.431.482.482 0 01-.36.231c-.139.02-.319.024-.493.024z"></path>
    <path
      fill-rule="evenodd"
      clip-rule="evenodd"
      d="M12.203 15.435c.077-.004.163-.001.23-.002h.112c.193-.049 1.14-.317 1.826-1.094.676-.765.803-1.898.825-2.4-2.719.4-2.978 2.779-2.993 3.496zm-.003.888a3.92 3.92 0 01-.496-.024.482.482 0 01-.358-.23.499.499 0 01-.031-.433c-.067-1.231.528-4.278 4.062-4.614a.652.652 0 01.709.603c.002.024.103 1.996-1.049 3.302-.966 1.095-2.296 1.372-2.352 1.384l-.088.009-.152.001-.245.002zM8.878 8.227c-.042.498-.051 1.617.582 2.37.63.75 1.234 1.132 1.845 1.168.053-.675.028-2.882-2.427-3.538zm2.521 4.429c-.921 0-1.778-.487-2.619-1.487-1.095-1.303-.762-3.267-.747-3.35a.648.648 0 01.771-.522c3.364.704 3.55 3.803 3.35 4.832a.653.653 0 01-.62.525l-.135.002z"></path>
    <path
      fill-rule="evenodd"
      clip-rule="evenodd"
      d="M14.65 8.227c-2.448.654-2.48 2.849-2.427 3.538.611-.036 1.216-.419 1.845-1.167.633-.754.624-1.875.582-2.371zm-2.521 4.429c-.046 0-.091-.001-.137-.003a.652.652 0 01-.62-.523c-.202-1.029-.022-4.126 3.351-4.833a.65.65 0 01.772.523c.015.082.347 2.046-.747 3.349-.841 1-1.697 1.487-2.62 1.487z"></path>
  </symbol>
  <symbol xmlns="http://www.w3.org/2000/svg" id="icon-2" viewBox="0 0 24 24">
    <path
      fill-rule="evenodd"
      clip-rule="evenodd"
      d="M.933 12C.933 18.1 5.9 23.067 12 23.067c6.102 0 11.067-4.966 11.067-11.067S18.102.933 12 .933C5.9.933.933 5.9.933 12zM0 12c0 6.617 5.383 12 12 12s12-5.383 12-12S18.617 0 12 0 0 5.383 0 12z"></path>
    <path
      fill-rule="evenodd"
      clip-rule="evenodd"
      d="M12.246 19.929c-.594 0-1.24-.036-1.886-.124-.855-.018-1.554-.73-1.554-1.618v-6.791c0-.89.716-1.618 1.59-1.618h3.893c.873 0 1.589.729 1.589 1.618v6.79c0 .872-.699 1.6-1.554 1.619-.175.035-1.013.124-2.078.124zm-1.85-9.333a.808.808 0 00-.804.817v6.791c0 .445.35.818.803.818h.053c1.816.267 3.771 0 3.789 0h.052a.808.808 0 00.803-.817v-6.792a.808.808 0 00-.803-.817h-3.894z"></path>
    <path
      fill-rule="evenodd"
      clip-rule="evenodd"
      d="M14.83 10.596H9.592a.391.391 0 01-.384-.392V8.871c0-.213.175-.391.384-.391h5.238c.21 0 .384.178.384.391v1.333c.018.214-.157.392-.384.392zm-4.836-.8h4.452v-.534H9.994v.534z"></path>
    <path
      fill-rule="evenodd"
      clip-rule="evenodd"
      d="M14.167 9.262a.391.391 0 01-.384-.39V7.84h-.35a.374.374 0 01-.366-.284L12.21 4.87h-.174l-.716 2.667a.41.41 0 01-.384.302h-.297v1.031a.391.391 0 01-.384.391.391.391 0 01-.384-.39v-1.44c0-.214.174-.392.384-.392h.401l.699-2.596a.43.43 0 01.227-.266c.628-.267 1.1 0 1.152.018.087.053.157.124.175.23l.82 2.614h.454c.21 0 .384.178.384.391v1.44c-.017.213-.192.391-.401.391zM10.814 18.133a.391.391 0 01-.384-.39V11.84c0-.213.175-.391.384-.391.21 0 .384.178.384.391v5.902c.018.214-.157.391-.384.391z"></path>
    <path
      fill-rule="evenodd"
      clip-rule="evenodd"
      d="M11.984 7.84H10.92a.391.391 0 010-.782h1.065a.391.391 0 010 .782z"></path>
  </symbol>
  <symbol xmlns="http://www.w3.org/2000/svg" id="icon-3" viewBox="0 0 24 24">
    <path
      fill-rule="evenodd"
      clip-rule="evenodd"
      d="M.933 12C.933 18.1 5.9 23.067 12 23.067c6.102 0 11.067-4.966 11.067-11.067S18.102.933 12 .933C5.9.933.933 5.9.933 12zM0 12c0 6.617 5.383 12 12 12s12-5.383 12-12S18.617 0 12 0 0 5.383 0 12z"></path>
    <path
      fill-rule="evenodd"
      clip-rule="evenodd"
      d="M11.999 7.514c-.065 0-.134.043-.194.123-.484.638-1.295 1.862-1.295 2.896 0 .498.195.955.58 1.36a1.243 1.243 0 001.818 0c.384-.405.579-.862.579-1.36 0-1.034-.811-2.258-1.295-2.896-.06-.08-.129-.123-.193-.123zm0 5.621a2.075 2.075 0 01-1.519-.657c-.538-.568-.81-1.222-.81-1.945 0-1.218.796-2.527 1.466-3.41.22-.29.534-.456.863-.456.328 0 .643.166.863.456.668.883 1.466 2.192 1.466 3.41 0 .723-.273 1.377-.811 1.945a2.075 2.075 0 01-1.518.657zM6.714 12.909a.206.206 0 00-.135.041c-.05.042-.075.12-.07.22.037.802.198 2.264.858 3.057.318.38.759.605 1.311.667.348.039.686-.063.95-.286.264-.223.421-.54.444-.891.036-.559-.107-1.035-.425-1.416-.66-.792-2.063-1.206-2.841-1.382a.42.42 0 00-.092-.01zm2.112 4.84c-.08 0-.16-.005-.24-.014-.775-.086-1.402-.41-1.864-.964-.778-.934-1.002-2.452-1.054-3.561-.017-.365.118-.696.37-.908.252-.213.6-.289.952-.209 1.077.243 2.523.73 3.302 1.664.46.553.67 1.23.62 2.014a2.1 2.1 0 01-.744 1.486c-.38.321-.85.492-1.342.492zM17.282 12.953a.417.417 0 00-.09.01c-.778.177-2.182.59-2.842 1.382-.318.381-.46.857-.425 1.416.022.352.18.668.444.891.265.223.603.325.95.286.552-.062.993-.286 1.311-.667.66-.792.821-2.255.858-3.057.005-.099-.02-.177-.07-.22a.206.206 0 00-.136-.041zm-2.111 4.84a2.1 2.1 0 01-2.086-1.978c-.05-.783.16-1.461.62-2.014.779-.934 2.225-1.42 3.302-1.664.353-.08.7-.004.952.209s.387.544.37.908c-.052 1.11-.277 2.628-1.055 3.561-.46.553-1.088.878-1.863.965-.08.009-.16.013-.24.013z"></path>
  </symbol>
  <symbol xmlns="http://www.w3.org/2000/svg" id="calories" viewBox="0 0 24 26">
    <path
      fill-rule="evenodd"
      clip-rule="evenodd"
      d="M10.123 18.563c-1.17.469-1.75 1.577-1.698 2.913.039.997.446 1.788.775 1.926.062.01.124.02.184.027.813.108.734 1.309-.086 1.309a1.83 1.83 0 01-.572-.089 8.973 8.973 0 01-.882-.232 8.739 8.739 0 01-2.432-1.195c-2.118-1.504-3.311-3.873-3.147-7.236.274-2.878 1.322-5.174 3.016-7.273.61-.755 2.38-2.61 2.338-2.563a.657.657 0 011.151.433c0 .42-.017.734-.085 1.722-.02.289-.032.468-.043.656-.065 1.102-.054 1.828.061 2.343.103.46.211.574.422.559 1.085-.08 1.583-1.51 1.583-4.2 0-1.391-.694-3.29-2.1-5.669-.32-.542.232-1.181.815-.943 7.972 3.265 12.029 7.982 12.029 14.119 0 6.197-3.43 9.533-10.058 9.83-.777.034-.96-1.072-.212-1.288 2.553-.74 3.776-2.365 3.776-5.018 0-2.143-.624-3.735-1.882-4.829.082 2.27-.907 3.878-2.953 4.698zm1.48-5.912c.51 2.47-.14 3.96-1.969 4.693-2.15.861-2.857 3.556-2.379 5.443a7.39 7.39 0 01-1.082-.637c-1.758-1.248-2.737-3.192-2.597-6.07.245-2.57 1.186-4.63 2.728-6.54.228-.283.644-.746 1.061-1.198l-.035.542c-.072 1.22-.059 2.035.09 2.707.23 1.027.828 1.655 1.803 1.582 2.102-.155 2.8-2.16 2.8-5.51 0-1.284-.453-2.82-1.348-4.624 6.346 3.012 9.463 7.047 9.463 12.131 0 4.322-1.782 6.964-5.461 8.014 1.057-1.11 1.596-2.616 1.596-4.49 0-3.18-1.248-5.467-3.722-6.758a.657.657 0 00-.948.715z"></path>
    <path
      d="M8.425 21.476l-.125.004.125-.005zm1.698-2.913l.046.117-.046-.117zm-.923 4.84l-.048.114.013.006.015.003.02-.124zm.184.026l-.016.124.016-.124zm-.658 1.22l.04-.12-.015-.002-.025.122zm-.882-.232l-.037.119.037-.12zm-2.432-1.195l.073-.102-.073.102zm-3.147-7.236l-.125-.012v.006l.125.006zm3.016-7.273l-.097-.078.097.078zm3.404-.408l.124.008-.124-.008zm-.043.656l-.125-.007.125.007zm.061 2.343l-.122.028.122-.028zm.422.559l.01.124-.01-.124zm-.517-9.869l.108-.064-.108.064zm.815-.943l-.048.116.048-.116zM11.394 25l-.005-.125.005.125zm-.212-1.287l-.035-.12.035.12zm1.894-9.847l.082-.094-.217-.189.01.288.125-.005zm-3.442 3.479l-.046-.116.046.116zm1.97-4.693l.122-.025-.123.025zM7.254 22.787l-.054.113.24.115-.065-.259-.12.03zm-1.082-.637l-.072.102.072-.102zm-2.597-6.07l-.125-.012v.006l.125.006zm2.728-6.54l.097.078-.097-.079zm1.061-1.198l.125.008.024-.354-.24.261.091.085zm-.035.542l.125.007-.125-.007zm.09 2.707l.123-.028-.122.027zm1.803 1.582l.009.125-.01-.125zM10.675 3.04l.054-.113-.326-.155.16.324.112-.056zm4.002 20.145l-.09-.086-.317.332.441-.125-.034-.12zM12.55 11.935l.058-.11-.058.11zM8.55 21.471c-.051-1.295.51-2.347 1.62-2.791l-.094-.233c-1.23.493-1.83 1.658-1.776 3.033l.25-.01zm.698 1.816a.57.57 0 01-.204-.18 1.854 1.854 0 01-.226-.396 3.512 3.512 0 01-.268-1.24l-.25.01c.02.513.135.976.29 1.33a2.1 2.1 0 00.257.449.808.808 0 00.305.257l.096-.23zm.153.018a6.52 6.52 0 01-.18-.026l-.041.247.188.027.033-.248zm-.103 1.558c.976 0 1.07-1.43.103-1.558l-.033.248c.658.087.594 1.06-.07 1.06v.25zm-.61-.095c.19.062.393.095.61.095v-.25c-.191 0-.37-.03-.533-.083l-.078.238zm-.881-.232c.33.104.628.18.894.235l.05-.244a8.838 8.838 0 01-.869-.23l-.075.239zM5.34 23.324a8.86 8.86 0 002.467 1.212l.075-.239a8.615 8.615 0 01-2.397-1.177l-.145.204zm-3.2-7.344c-.166 3.4 1.042 5.812 3.2 7.344l.145-.204c-2.08-1.476-3.257-3.803-3.095-7.128l-.25-.012zm3.044-7.345c-1.708 2.115-2.767 4.434-3.043 7.34l.248.023c.272-2.851 1.31-5.125 2.99-7.206l-.195-.157zm2.529-2.402l.002-.003.004-.005a.238.238 0 00.007-.01.235.235 0 00.017-.087c-.049-.079-.162-.098-.184-.088a.23.23 0 00-.017.012l-.007.006a.144.144 0 00-.003.002l-.003.003a1.235 1.235 0 00-.064.067l-.199.209c-.17.179-.406.43-.663.707-.513.551-1.11 1.207-1.42 1.589l.195.157c.302-.374.894-1.023 1.408-1.576a107.009 107.009 0 01.92-.976l-.01.008a.227.227 0 01-.016.011c-.022.01-.135-.01-.184-.088a.235.235 0 01.017-.086.233.233 0 01.01-.015l.002-.002.188.165zm1.182.35c0-.722-.895-1.058-1.37-.515l.188.165a.532.532 0 01.932.35h.25zm-.086 1.73c.068-.987.086-1.304.086-1.73h-.25c0 .416-.017.725-.085 1.713l.25.017zm-.042.656c.01-.188.022-.367.042-.656l-.249-.017c-.02.29-.032.47-.043.658l.25.015zm.058 2.308c-.11-.497-.124-1.207-.058-2.308l-.25-.015c-.065 1.102-.055 1.843.064 2.378l.244-.055zm.291.461a.204.204 0 01-.087-.008.132.132 0 01-.057-.046c-.048-.06-.096-.178-.147-.407l-.244.055c.052.23.109.399.194.507.046.058.1.1.165.125a.45.45 0 00.194.023l-.018-.249zm1.467-4.075c0 1.34-.125 2.352-.377 3.035-.25.68-.616 1.005-1.09 1.04l.018.25c.612-.046 1.038-.476 1.307-1.204.268-.724.392-1.772.392-3.121h-.25zM8.5 2.058c1.403 2.373 2.082 4.249 2.082 5.605h.25c0-1.426-.708-3.35-2.117-5.733l-.215.128zM9.47.936c-.695-.284-1.352.476-.97 1.122l.215-.128a.532.532 0 01.66-.763L9.47.936zM21.576 15.17C21.577 8.96 17.466 4.21 9.47.936l-.095.231c7.948 3.255 11.952 7.938 11.952 14.003h.25zM11.4 25.124c3.332-.149 5.88-1.063 7.596-2.737 1.716-1.676 2.58-4.096 2.58-7.217h-.25c0 3.075-.85 5.422-2.505 7.038-1.657 1.617-4.137 2.52-7.432 2.666l.01.25zm-.253-1.532c-.89.257-.672 1.573.253 1.532l-.011-.25c-.63.028-.777-.867-.172-1.042l-.07-.24zm3.686-4.898c0 1.308-.301 2.349-.905 3.152-.605.803-1.523 1.381-2.78 1.745l.069.24c1.295-.374 2.265-.978 2.91-1.835.646-.858.956-1.956.956-3.302h-.25zm-1.839-4.734c1.224 1.063 1.84 2.616 1.84 4.734h.25c0-2.168-.633-3.8-1.926-4.923l-.164.189zm-2.825 4.72c1.044-.419 1.825-1.042 2.335-1.856.508-.814.739-1.81.697-2.963l-.25.009c.04 1.115-.183 2.059-.66 2.821-.476.763-1.212 1.355-2.215 1.756l.093.233zm-.488-1.22c.939-.377 1.587-.953 1.93-1.762.34-.806.372-1.824.115-3.072l-.245.05c.252 1.223.213 2.184-.1 2.924-.312.736-.902 1.27-1.793 1.628l.093.232zm-2.305 5.296c-.232-.918-.177-2.037.2-3.03.376-.994 1.07-1.852 2.105-2.266l-.093-.232c-1.115.446-1.85 1.367-2.246 2.409-.394 1.04-.453 2.212-.208 3.18l.242-.06zm-1.275-.504c.364.258.734.472 1.1.648l.108-.226a7.248 7.248 0 01-1.063-.626l-.145.204zm-2.65-6.178c-.142 2.914.852 4.902 2.65 6.178l.145-.204c-1.72-1.22-2.683-3.12-2.545-5.962l-.25-.012zm2.756-6.613c-1.556 1.927-2.508 4.01-2.756 6.607l.25.024c.242-2.543 1.172-4.581 2.7-6.474l-.194-.157zm1.066-1.204c-.416.452-.835.918-1.066 1.204l.194.157c.225-.28.639-.739 1.056-1.192l-.184-.169zm.182.634l.035-.54-.25-.018-.035.543.25.015zm.088 2.672c-.146-.653-.16-1.454-.088-2.672l-.25-.015c-.072 1.221-.06 2.052.094 2.742l.244-.055zm1.67 1.486c-.456.034-.814-.096-1.086-.347-.276-.254-.473-.641-.584-1.139l-.244.055c.118.529.334.969.658 1.268.328.302.756.45 1.275.412l-.019-.25zm2.684-5.386c0 1.67-.174 2.987-.6 3.9-.211.455-.483.807-.823 1.054-.34.246-.755.394-1.26.432l.018.249c.545-.04 1.006-.201 1.389-.479.381-.277.678-.666.903-1.15.45-.965.623-2.327.623-4.006h-.25zm-1.334-4.568c.891 1.795 1.334 3.312 1.334 4.568h.25c0-1.311-.46-2.868-1.36-4.68l-.224.112zm9.7 12.075c0-5.15-3.164-9.22-9.534-12.244l-.107.226c6.32 3 9.39 7 9.39 12.018h.25zm-5.552 8.135c1.862-.532 3.254-1.47 4.18-2.83.923-1.36 1.372-3.128 1.372-5.305h-.25c0 2.145-.442 3.859-1.33 5.164-.886 1.303-2.224 2.212-4.04 2.73l.068.24zm1.437-4.61c0 1.848-.531 3.32-1.562 4.403l.181.172c1.084-1.139 1.63-2.677 1.63-4.575h-.25zm-3.655-6.649c2.425 1.266 3.655 3.507 3.655 6.649h.25c0-3.218-1.267-5.554-3.79-6.87l-.115.221zm-.767.58a.532.532 0 01.767-.58l.116-.221a.782.782 0 00-1.128.85l.245-.05z"></path>
  </symbol>
  <symbol xmlns="http://www.w3.org/2000/svg" id="chevron-right" viewBox="0 0 24 24">
    <path
      fill-rule="evenodd"
      clip-rule="evenodd"
      d="M16.28 11.47a.75.75 0 010 1.06l-7.5 7.5a.75.75 0 01-1.06-1.06L14.69 12 7.72 5.03a.75.75 0 011.06-1.06l7.5 7.5z" />
  </symbol>
  <symbol xmlns="http://www.w3.org/2000/svg" id="chevron-left" viewBox="0 0 24 24">
    <path
      fill-rule="evenodd"
      clip-rule="evenodd"
      d="M7.72 12.53a.75.75 0 010-1.06l7.5-7.5a.75.75 0 111.06 1.06L9.31 12l6.97 6.97a.75.75 0 11-1.06 1.06l-7.5-7.5z" />
  </symbol>
</svg>
